Coordinates
version=1
nRows=10
nColumns=63
inDegrees=yes

Units are S.I. units (second, meters, Newtons, ...)
If the header above contains a line with 'inDegrees', this indicates whether rotational values are in degrees (yes) or radians (no).

endheader
time	pelvis_tilt	pelvis_list	pelvis_rotation	pelvis_tx	pelvis_ty	pelvis_tz	hip_flexion_r	hip_adduction_r	hip_rotation_r	knee_angle_r	knee_angle_r_beta	ankle_angle_r	subtalar_angle_r	mtp_angle_r	hip_flexion_l	hip_adduction_l	hip_rotation_l	knee_angle_l	knee_angle_l_beta	ankle_angle_l	subtalar_angle_l	mtp_angle_l	L5_S1_Flex_Ext	L5_S1_Lat_Bending	L5_S1_axial_rotation	L4_L5_Flex_Ext	L4_L5_Lat_Bending	L4_L5_axial_rotation	L3_L4_Flex_Ext	L3_L4_Lat_Bending	L3_L4_axial_rotation	L2_L3_Flex_Ext	L2_L3_Lat_Bending	L2_L3_axial_rotation	L1_L2_Flex_Ext	L1_L2_Lat_Bending	L1_L2_axial_rotation	L1_T12_Flex_Ext	L1_T12_Lat_Bending	L1_T12_axial_rotation	Abs_r3	Abs_r2	Abs_r1	Abs_t1	Abs_t2	neck_flexion	neck_bending	neck_rotation	arm_flex_r	arm_add_r	arm_rot_r	elbow_flex_r	pro_sup_r	wrist_flex_r	wrist_dev_r	arm_flex_l	arm_add_l	arm_rot_l	elbow_flex_l	pro_sup_l	wrist_flex_l	wrist_dev_l
      0.00000000	      1.96475648	     -5.60373585	    103.60503766	      0.26161032	      0.71116880	      0.61019375	     11.23469464	     -2.33659425	    -20.94478805	     15.84195230	      0.27649423	     36.44626910	     -0.39940201	      0.00000000	      6.34707266	      0.49111927	     31.50371119	      0.65500456	      0.01143199	     28.38024851	    -16.12905082	      0.00000000	      1.03455318	      0.05830200	     -2.78492491	      1.92126872	      0.07754167	     -2.95898271	      1.69966743	      0.14175549	     -2.95898271	      1.18239084	      0.14175549	     -2.43680929	      0.96068609	      0.11888945	     -2.26275149	      0.59114369	      0.09030980	     -2.08869368	      7.38970994	      0.65952393	    -15.48891685	      0.00000000	      0.00000000	     28.45968414	      8.88592991	     19.31958488	     16.45921081	      7.63120577	    100.69683720	     22.82110563	      4.62892222	     -6.29656886	     10.67680857	     36.04243860	     14.67496132	    177.15947438	      0.16903550	     80.27341872	    -22.76061958	     22.68811972
      0.01666667	      2.75357750	     -4.28481948	    103.92006946	      0.26043799	      0.71316462	      0.61061391	      9.15456409	     -1.02860706	    -21.96042468	     13.99329582	      0.24422909	     36.28635598	      1.77919027	      0.00000000	      5.28866867	     -0.50597777	     31.82213692	      0.89345002	      0.01559364	     28.62373746	    -16.20915287	      0.00000000	      0.90707265	      0.15729367	     -2.32895157	      1.68452462	      0.20920058	     -2.47451105	      1.49022966	      0.38244383	     -2.47451105	      1.03669333	      0.38244383	     -2.03783263	      0.84230766	      0.32075325	     -1.89227315	      0.51830131	      0.24364789	     -1.74671368	      6.47912923	      1.77933744	    -12.95292997	      0.00000000	      0.00000000	     28.43700363	      4.53673005	     13.73120817	     17.01039848	      6.22559369	    100.42240798	     22.20806080	      7.38249090	     -6.48514607	      9.11713835	     29.02746330	     15.62315548	    196.16969293	      0.23354838	     85.91431620	    -11.39062737	     29.60530026
      0.03333333	      3.41738075	     -3.82429683	    104.27367554	      0.25969828	      0.71373526	      0.61009045	      8.09017672	      0.00022475	    -22.22681464	     12.58791463	      0.21970056	     36.02336613	      2.53204005	      0.00000000	      5.08490184	     -1.18350600	     31.82558286	      1.25344282	      0.02187670	     29.07289291	    -15.95853718	      0.00000000	      0.87654666	      0.24994618	     -2.37407841	      1.62783480	      0.33242842	     -2.52245831	      1.44007850	      0.60771914	     -2.52245831	      1.00180518	      0.60771914	     -2.07731861	      0.81396123	      0.50969025	     -1.92893871	      0.50085876	      0.38716663	     -1.78055881	      6.26108512	      2.82744118	    -13.20391191	      0.00000000	      0.00000000	     28.42356910	      3.76191159	     13.50983058	     17.37360255	      5.72776510	    101.54244209	     21.56395912	     11.55639893	     -6.58943851	      8.20032293	     18.89963615	      5.61669092	    424.56498684	     22.63522604	     12.83695747	     -2.03480307	     -6.80064041
      0.05000000	      3.74326716	     -3.32468215	    104.61407503	      0.25910834	      0.71436383	      0.60985300	      7.03636086	      0.66222880	    -22.48054006	     11.47935216	      0.20035249	     35.73816965	      2.95077175	      0.00000000	      4.86631868	     -1.48538878	     31.62738514	      1.84705040	      0.03223711	     29.58671530	    -15.63443726	      0.00000000	      0.82895175	      0.29836694	     -2.36782175	      1.53944630	      0.39682803	     -2.51581061	      1.36188484	      0.72544938	     -2.51581061	      0.94740896	      0.72544938	     -2.07184403	      0.76976460	      0.60842987	     -1.92385517	      0.47366303	      0.46217039	     -1.77586631	      5.92111948	      3.37518651	    -13.16911421	      0.00000000	      0.00000000	     28.41282196	      3.16845527	     13.15152525	     17.63813592	      5.39917886	    102.67682070	     21.08874774	     13.36794085	     -6.80220835	      7.42304405	     18.02865409	      5.34715057	    429.38871099	     21.61581646	     14.82096826	     -7.58070944	     -1.62945209
      0.06666667	      3.80076887	     -3.12668188	    104.92380740	      0.25901006	      0.71447524	      0.60948597	      6.37894505	      0.92821387	    -22.80893407	     10.74681740	      0.18756735	     35.62640677	      3.28464582	      0.00000000	      4.95902515	     -1.42670579	     31.29341729	      2.62411600	      0.04579946	     30.18597166	    -15.30446214	      0.00000000	      0.81380659	      0.30104706	     -2.41343137	      1.51132021	      0.40039259	     -2.56427083	      1.33700284	      0.73196582	     -2.56427083	      0.93009955	      0.73196582	     -2.11175245	      0.75570080	      0.61389517	     -1.96091299	      0.46500908	      0.46632190	     -1.81007353	      5.81293907	      3.40550456	    -13.42278124	      0.00000000	      0.00000000	     28.41015713	      3.10412552	     12.92963541	     17.65497780	      5.36016438	    103.08660927	     20.79375253	     14.53394976	     -6.88411610	      7.08320467	     18.03107137	      5.03810656	    432.14387244	     21.20547878	     15.86727996	    -10.40596471	      1.61918975
      0.08333333	      3.71051657	     -3.16759455	    105.51783316	      0.25837446	      0.71420352	      0.60931188	      5.99111921	      0.71999468	    -25.25927961	     10.38139815	      0.18118958	     36.02070694	      5.86911610	      0.00000000	      5.48228687	     -1.05671952	     30.12149636	      3.81464803	      0.06657817	     31.25922163	    -13.46226724	      0.00000000	      0.82854535	      0.27712065	     -2.50041345	      1.53869157	      0.36857047	     -2.65668929	      1.36121716	      0.67379116	     -2.65668929	      0.94694448	      0.67379116	     -2.18786176	      0.76938721	      0.56510444	     -2.03158592	      0.47343081	      0.42925989	     -1.87531008	      5.91821660	      3.13484426	    -13.90654946	      0.00000000	      0.00000000	     28.41516950	      3.05296302	     12.39904406	     17.02637961	      5.00931181	     99.09836353	     21.15532834	     19.38821861	     -7.27878998	      7.69177308	     18.95441213	      5.01867797	    434.83673341	     20.78505841	     17.20267612	    -12.37856209	      3.03503953
      0.10000000	      3.62252169	     -3.13269681	    105.76651073	      0.25829827	      0.71405247	      0.60901644	      5.61983463	      0.73753031	    -25.61281815	      9.96339080	      0.17389397	     36.02751560	      6.11122635	      0.00000000	      5.76757407	     -0.79174466	     29.84226105	      4.72549147	      0.08247538	     31.80535888	    -13.27124497	      0.00000000	      0.82527718	      0.26132450	     -2.56457353	      1.53262224	      0.34756159	     -2.72485938	      1.35584787	      0.63538439	     -2.72485938	      0.94320928	      0.63538439	     -2.24400184	      0.76635239	      0.53289292	     -2.08371600	      0.47156338	      0.40479165	     -1.92343015	      5.89487234	      2.95615503	    -14.26338861	      0.00000000	      0.00000000	     28.41822991	      3.40003571	     12.59065848	     16.94324946	      5.12795769	     99.21207097	     21.04443578	     19.74882258	     -7.19130322	      7.72607244	     20.29460742	      5.06668467	    437.14168385	     20.47825333	     20.01618948	    -13.91935310	      3.57041725
      0.11666667	      3.41128777	     -3.17062343	    105.98839264	      0.25814464	      0.71377224	      0.60875952	      5.36523056	      0.56560554	    -25.98135968	      9.68734412	      0.16907605	     36.12222440	      6.35682839	      0.00000000	      6.09807220	     -0.37092582	     29.52615113	      5.62657804	      0.09820231	     32.30791742	    -13.02388900	      0.00000000	      0.82669107	      0.22893667	     -2.63433924	      1.53524799	      0.30448577	     -2.79898544	      1.35817076	      0.55663661	     -2.79898544	      0.94482523	      0.55663661	     -2.30504683	      0.76766533	      0.46684765	     -2.14040063	      0.47237128	      0.35462290	     -1.97575443	      5.90497167	      2.58977735	    -14.65140455	      0.00000000	      0.00000000	     28.42004298	      3.73136909	     12.54108246	     16.93060307	      5.37321559	     99.77826353	     20.89390725	     20.58551971	     -7.23491280	      7.82144561	     21.48796390	      5.12414919	    438.52156156	     20.11695218	     22.84568576	    -14.54249449	      1.91638088
      0.13333333	      3.27304002	     -3.51756556	    106.72326969	      0.25764302	      0.71286918	      0.60882862	      5.56946908	      0.11037360	    -28.29463241	      9.92775960	      0.17327209	     36.71297446	      8.54412793	      0.00000000	      6.98027843	      0.04018365	     27.67968605	      6.71334219	      0.11716992	     33.58757675	     -9.61894870	      0.00000000	      0.86881307	      0.19904763	     -2.85303996	      1.61347274	      0.26473334	     -3.03135495	      1.42737299	      0.48396440	     -3.03135495	      0.99296645	      0.48396440	     -2.49640996	      0.80677981	      0.40589792	     -2.31809496	      0.49643979	      0.30832477	     -2.13977997	      6.20584485	      2.25166657	    -15.86775233	      0.00000000	      0.00000000	     28.42912628	      4.33826970	     13.37998249	     16.95804616	      5.76471042	    100.60759936	     20.56632283	     23.12603012	     -7.19404875	      7.79838490	     20.02709587	      4.64806669	    423.71866374	     22.14732065	     42.52103995	    -15.91487779	      4.59814921
      0.15000000	      2.93801351	     -3.61525806	    106.92330524	      0.25764879	      0.71250257	      0.60861214	      5.48113802	     -0.24567355	    -28.23160715	      9.97371847	      0.17407423	     36.75966218	      8.34103639	      0.00000000	      7.20999268	      0.52957835	     27.90732640	      7.23473555	      0.12626996	     33.74965267	     -9.68505150	      0.00000000	      0.87427758	      0.14804447	     -2.89367043	      1.62362089	      0.19689914	     -3.07452483	      1.43635063	      0.35995532	     -3.07452483	      0.99921185	      0.35995532	     -2.53196163	      0.81185416	      0.30189228	     -2.35110722	      0.49956221	      0.22932088	     -2.17025282	      6.24487732	      1.67470862	    -16.09372683	      0.00000000	      0.00000000	     28.43373817	      4.43956622	     13.14694559	     17.13547582	      6.19329221	    102.27273501	     20.10022687	     24.61013483	     -7.22404640	      7.55163475	     20.19509951	      4.59082220	    422.20625447	     22.47389850	     41.67961799	    -15.46248123	      3.31499575
